<svg width="28" height="28" viewBox="0 0 28 28" fill="none" xmlns="http://www.w3.org/2000/svg">
<g clip-path="url(#clip0_34_3441)">
<path d="M10.0379 20.3185L7.92971 16.667L7.4187 16.481V28H9.16272L13.1881 23.7379V19.1719L10.0379 20.3185Z" fill="#FFC107"/>
<path d="M20.6593 5.58779L20.0631 2.20679H16.63L14 0L11.37 2.20679H7.93686L7.34068 5.58779L4.71069 7.79463L6.4273 10.7678L5.83112 14.1489L9.05728 15.3231L10.7739 18.2963L14.0001 17.1221L17.2262 18.2963L18.9428 15.3231L22.169 14.1489L21.5728 10.7678L23.2894 7.79463L20.6593 5.58779ZM12.5031 11.9518L10.3521 9.44228L11.6036 8.36954L12.7495 9.70635L16.5275 6.87289L17.5166 8.19162L12.5031 11.9518Z" fill="#FFC107"/>
<path d="M20.0703 16.667L17.9622 20.3185L14.8365 19.1809V23.7343L18.8778 28.0001H20.606V16.472L20.0703 16.667Z" fill="#FFC107"/>
</g>
<defs>
<clipPath id="clip0_34_3441">
<rect width="28" height="28" fill="white"/>
</clipPath>
</defs>
</svg>
