<svg width="1366" height="576" viewBox="0 0 1366 576" fill="none" xmlns="http://www.w3.org/2000/svg">
<rect width="1366" height="575" fill="#0367B4"/>
<g style="mix-blend-mode:overlay" opacity="0.1">
<circle cx="143.5" cy="250.5" r="203.5" fill="white"/>
</g>
<path opacity="0.4" d="M548.676 2C552.507 23.4358 523.891 78.5478 378.776 127.51C197.382 188.713 111.433 173.634 99.9396 271.647C88.4464 369.66 205.378 459.69 178.394 515.571C156.806 560.276 48.4698 573.817 -3 575" stroke="white" stroke-dasharray="12 12"/>
<path opacity="0.5" d="M1361 137.721C1281.76 119.259 1117.21 103.328 1092.89 187.3C1062.49 292.265 1103.86 321.744 1193.56 365.517C1283.26 409.289 1304.19 426.263 1248.87 464.675C1193.56 503.088 1169.14 521.401 1193.56 537.927C1213.09 551.148 1241.23 568.151 1252.86 575" stroke="white" stroke-dasharray="12 12"/>
</svg>
