<svg width="29" height="28" viewBox="0 0 29 28" fill="none" xmlns="http://www.w3.org/2000/svg">
<g clip-path="url(#clip0_34_3416)">
<path d="M3.84733 25.7516C3.52413 25.8536 3.1716 25.7797 2.91554 25.5562C2.65948 25.3326 2.53637 24.9914 2.59013 24.6542L4.11816 15.3901H3.74066C3.50762 15.3903 3.30732 15.5569 3.26281 15.7875L1.20628 26.4339C1.17901 26.5769 1.21653 26.7246 1.30857 26.8367C1.40182 26.9513 1.54107 27.0176 1.68802 27.0175H11.7476L11.8937 25.2368C9.21119 24.726 6.44437 24.903 3.84733 25.7516Z" fill="#0367B4"/>
<path d="M8.79674 8.69077C8.60582 8.42806 8.30187 8.27325 7.9789 8.27421C7.51785 8.27682 7.11477 8.58832 6.99237 9.03659C6.86996 9.48487 7.0581 9.96055 7.45283 10.2008C7.60422 10.2902 7.69622 10.4549 7.69367 10.6318C7.69113 10.8087 7.59443 10.9706 7.44053 11.0556C7.28662 11.1405 7.0993 11.1354 6.95014 11.0423C6.81836 10.9599 6.69671 10.8622 6.58774 10.751C6.14468 11.7831 6.31278 12.9786 7.02291 13.8458C7.73303 14.7131 8.86531 15.1056 9.95409 14.8621C9.92633 14.6998 9.91151 14.5355 9.90976 14.3708C9.05078 14.2762 8.39987 13.5451 8.39878 12.6736C8.39823 12.4012 8.6157 12.1792 8.88588 12.1765C9.0144 12.1751 9.13817 12.2255 9.22965 12.3166C9.32112 12.4076 9.37273 12.5317 9.37298 12.6614V12.6736C9.37917 13.0617 9.68275 13.3784 10.0671 13.3977C10.136 13.1771 10.2295 12.965 10.3457 12.7655C10.4331 12.6107 10.5967 12.5158 10.7734 12.5174C10.95 12.519 11.1119 12.6169 11.1965 12.7732C11.2812 12.9295 11.2753 13.1198 11.1811 13.2705C10.6203 14.206 10.8639 15.4187 11.7415 16.0603C12.619 16.702 13.8377 16.5584 14.545 15.7301C14.6798 15.5723 14.8986 15.5173 15.0911 15.593C15.6035 15.7979 16.1557 15.882 16.7053 15.8386C16.9906 15.8197 17.2727 15.7675 17.546 15.6829C17.7124 15.6313 17.8934 15.6731 18.0209 15.7926C18.1484 15.9121 18.203 16.0912 18.1641 16.2623C18.1253 16.4334 17.9988 16.5705 17.8325 16.6221C17.5882 16.695 17.3385 16.7475 17.0857 16.7793C17.2582 17.1232 17.6644 17.443 18.717 17.7986C19.2716 17.9763 19.7655 18.3073 20.1428 18.7541C20.2932 18.943 20.5476 19.0119 20.7716 18.9245C20.9653 18.8413 21.091 18.6495 21.0912 18.4372C21.0911 18.3833 21.0826 18.3298 21.0658 18.2786C20.9743 17.9854 20.8525 17.7027 20.7025 17.4351C20.4248 17.5524 20.1349 17.6378 19.8383 17.6896C19.8127 17.6935 19.7868 17.6955 19.7609 17.6955C19.5074 17.6945 19.2971 17.4977 19.2771 17.2429C19.2571 16.9881 19.4343 16.7605 19.6844 16.7194C20.4885 16.5874 21.2089 16.1419 21.6903 15.4791C20.9419 15.7075 20.1346 15.6322 19.4404 15.2693C19.2351 15.1619 19.0435 15.0299 18.8695 14.8763C18.6751 14.9551 18.4677 14.9962 18.2582 14.9976C17.6146 14.9994 17.026 14.6321 16.7404 14.0506C16.62 13.8079 16.7175 13.5127 16.9581 13.3913C17.1987 13.2699 17.4914 13.3682 17.6118 13.6109C17.7086 13.7967 17.8791 13.9324 18.0808 13.9843C18.2825 14.0362 18.4965 13.9994 18.6698 13.8831C18.9648 13.6758 19.0647 13.2818 18.9046 12.9571C18.8263 12.8003 18.8368 12.6133 18.9323 12.4665C19.0279 12.3197 19.1938 12.2354 19.3676 12.2454C19.5414 12.2554 19.6967 12.3582 19.775 12.515C20.0556 13.0707 20.0064 13.7378 19.6474 14.2456C19.7225 14.3004 19.8015 14.3496 19.8836 14.3929C20.721 14.8138 21.7333 14.6264 22.3678 13.9332L22.3795 13.9209C22.8855 13.3506 23.0434 12.5477 22.7916 11.8258C22.6788 11.9152 22.5569 11.9921 22.4278 12.0552C22.3632 12.086 22.2927 12.102 22.2212 12.1019C21.9951 12.0996 21.8002 11.9407 21.7507 11.7181C21.7012 11.4956 21.8102 11.2679 22.0137 11.1685C22.2078 11.0765 22.369 10.9262 22.475 10.7382C22.7228 10.3123 22.6366 9.76908 22.2694 9.44246C21.9022 9.11585 21.3569 9.09747 20.9689 9.39863C20.7537 9.56141 20.4484 9.51743 20.287 9.30039C20.1255 9.08335 20.1692 8.77545 20.3844 8.61267C20.574 8.46985 20.7875 8.36254 21.0147 8.29583C20.6976 6.92334 19.5248 5.92352 18.1301 5.83674C18.1301 5.87456 18.1413 5.91042 18.1413 5.94825C18.1413 6.21954 17.9232 6.43947 17.6542 6.43947C17.3852 6.43947 17.1671 6.21954 17.1671 5.94825C17.1671 5.57908 16.9718 5.23796 16.6548 5.05338C16.3378 4.8688 15.9472 4.8688 15.6302 5.05338C15.3131 5.23796 15.1178 5.57908 15.1178 5.94825C15.1178 6.21954 14.8998 6.43947 14.6307 6.43947C14.3617 6.43947 14.1436 6.21954 14.1436 5.94825C14.1463 5.7282 14.1849 5.5101 14.2581 5.30277C13.8749 5.04837 13.4266 4.91184 12.9678 4.90979C12.1255 4.91286 11.3461 5.36006 10.9132 6.08874C10.8009 6.28084 10.7158 6.48785 10.6604 6.70376C10.5886 6.96087 10.3262 7.11299 10.0697 7.04619C9.81326 6.9794 9.65674 6.71817 9.71736 6.45814C9.74632 6.35397 9.78046 6.25134 9.81965 6.15063C9.76098 6.14058 9.70178 6.13402 9.64235 6.13098C8.94293 6.13328 8.34048 6.62879 8.19761 7.31926C8.74702 7.37422 9.24827 7.65941 9.57902 8.10523C9.68283 8.24615 9.7042 8.43222 9.63508 8.59335C9.56596 8.75447 9.41686 8.86617 9.24394 8.88636C9.07102 8.90656 8.90055 8.83219 8.79674 8.69126V8.69077ZM16.2679 11.4706C16.6891 11.1782 16.979 10.7301 17.0745 10.2234C17.1045 10.0484 17.2258 9.90327 17.3919 9.84394C17.5579 9.78462 17.7427 9.8203 17.8753 9.93728C18.0078 10.0542 18.0675 10.2343 18.0312 10.4081C17.7974 11.6243 16.8383 12.5657 15.6264 12.7685C15.2701 13.7198 14.3654 14.3479 13.357 14.3438C13.088 14.3438 12.8699 14.1239 12.8699 13.8526C12.8699 13.5813 13.088 13.3614 13.357 13.3614C13.828 13.3621 14.27 13.1322 14.5426 12.7449C13.9409 12.6151 13.3948 12.2981 12.9814 11.8386C12.8005 11.6371 12.8158 11.3259 13.0155 11.1435C13.2153 10.961 13.5239 10.9764 13.7048 11.1779C14.3719 11.8969 15.4581 12.021 16.2679 11.4706ZM13.0715 7.85961C13.3406 7.85961 13.5586 8.07955 13.5586 8.35084C13.5586 8.62214 13.3406 8.84207 13.0715 8.84207C12.7356 8.84207 12.4135 8.97663 12.176 9.21615C11.9385 9.45567 11.8051 9.78053 11.8051 10.1193C11.8051 10.3906 11.587 10.6105 11.318 10.6105C11.049 10.6105 10.8309 10.3906 10.8309 10.1193C10.8322 8.87186 11.8346 7.86097 13.0715 7.85961Z" fill="#0367B4"/>
<path d="M14.1432 24.8177V18.6666C14.1432 18.3953 14.3613 18.1754 14.6303 18.1754C14.8993 18.1754 15.1174 18.3953 15.1174 18.6666V24.8177C18.5546 23.6603 22.2717 23.6603 25.7089 24.8177L23.9505 14.1473C23.7863 14.1198 23.6231 14.1011 23.4599 14.08C23.3769 14.2192 23.2831 14.3516 23.1794 14.4759C22.9661 15.4819 22.389 16.3719 21.5607 16.9723C21.7375 17.29 21.8818 17.6249 21.9913 17.972C22.0408 18.1218 22.0658 18.2788 22.0654 18.4367C22.0665 19.0424 21.7093 19.5903 21.1574 19.8293C20.9746 19.9077 20.7779 19.9481 20.5792 19.9482C20.1249 19.9451 19.6948 19.7413 19.4024 19.3907C19.1394 19.0819 18.7958 18.8537 18.4107 18.7319C16.982 18.249 16.302 17.7038 16.0667 16.8038C15.7221 16.78 15.3812 16.7177 15.0502 16.6182C14.3548 17.2715 13.3973 17.5608 12.4603 17.4007C11.5233 17.2405 10.7138 16.6492 10.2708 15.8013C8.62198 16.2096 6.8995 15.5049 5.99889 14.0535L5.66766 14.0982C5.45485 14.1262 5.28532 14.2914 5.25021 14.5049L3.5517 24.8138C6.98937 23.6578 10.7064 23.6592 14.1432 24.8177Z" fill="#0367B4"/>
<path d="M25.5194 15.3906H25.1429L26.6699 24.6527C26.7243 24.9893 26.6022 25.3304 26.3471 25.5543C26.092 25.7782 25.7402 25.8532 25.4171 25.7526C22.8197 24.9023 20.052 24.7238 17.3683 25.2333L17.5144 27.0175H27.5725C27.7195 27.0176 27.8587 26.9512 27.952 26.8367C28.044 26.7246 28.0815 26.5768 28.0543 26.4339L25.9973 15.788C25.9527 15.5573 25.7524 15.3908 25.5194 15.3906Z" fill="#0367B4"/>
<path d="M14.8412 25.9859C14.7755 26.0181 14.7034 26.0349 14.6303 26.035C14.5574 26.0346 14.4855 26.0178 14.4199 25.9859C13.9122 25.7672 13.388 25.5897 12.8524 25.4548L12.6848 27.4935C12.7837 27.6502 13.4569 27.9999 14.6303 27.9999C15.8037 27.9999 16.4769 27.6502 16.5758 27.4944L16.4082 25.4529C15.8727 25.5882 15.3487 25.7664 14.8412 25.9859Z" fill="#0367B4"/>
<path d="M14.6303 1.47368C14.8993 1.47368 15.1174 1.25375 15.1174 0.982456V0.491228C15.1174 0.21993 14.8993 0 14.6303 0C14.3613 0 14.1432 0.21993 14.1432 0.491228V0.982456C14.1432 1.25375 14.3613 1.47368 14.6303 1.47368Z" fill="#0367B4"/>
<path d="M22.4808 4.85473C22.61 4.85471 22.7339 4.80293 22.8252 4.7108L23.3123 4.21957C23.4389 4.09624 23.4897 3.9136 23.4452 3.74185C23.4006 3.5701 23.2676 3.43598 23.0973 3.39102C22.927 3.34607 22.7459 3.39728 22.6236 3.52498L22.1365 4.01621C21.9972 4.15669 21.9555 4.36794 22.0309 4.55148C22.1063 4.73501 22.2839 4.85469 22.4808 4.85473Z" fill="#0367B4"/>
<path d="M6.43532 4.7108C6.62644 4.89697 6.93025 4.8943 7.11814 4.70482C7.30603 4.51534 7.30867 4.20895 7.12408 4.01621L6.63698 3.52498C6.51468 3.39728 6.33357 3.34607 6.16327 3.39102C5.99296 3.43598 5.85996 3.5701 5.81539 3.74185C5.77081 3.9136 5.82159 4.09624 5.94822 4.21958L6.43532 4.7108Z" fill="#0367B4"/>
<path d="M10.0793 2.48474C10.1547 2.66826 10.3324 2.78788 10.5294 2.78783C10.5934 2.78769 10.6567 2.77501 10.7159 2.75049C10.8353 2.70062 10.9301 2.60495 10.9796 2.48453C11.029 2.36412 11.0289 2.22884 10.9794 2.10846L10.4198 0.746776C10.3556 0.580925 10.2076 0.46303 10.0327 0.438613C9.8579 0.414196 9.68364 0.487079 9.57725 0.629119C9.47086 0.771158 9.44899 0.960127 9.52008 1.12306L10.0793 2.48474Z" fill="#0367B4"/>
<path d="M18.5446 2.75086C18.6038 2.77538 18.6671 2.78806 18.7311 2.78819C18.9281 2.78824 19.1058 2.66863 19.1812 2.48511L19.7404 1.12342C19.8115 0.960493 19.7897 0.771525 19.6833 0.629485C19.5769 0.487445 19.4026 0.414562 19.2278 0.438979C19.0529 0.463396 18.9049 0.581292 18.8407 0.747142L18.2811 2.10833C18.2314 2.22877 18.2313 2.36418 18.2807 2.48471C18.3301 2.60524 18.4251 2.70099 18.5446 2.75086Z" fill="#0367B4"/>
<path d="M24.5306 8.63674C24.5946 8.63663 24.658 8.62377 24.7171 8.59892L26.0669 8.03499C26.2277 7.96786 26.3407 7.81932 26.3635 7.64532C26.3862 7.47132 26.3152 7.2983 26.1772 7.19143C26.0391 7.08456 25.855 7.06007 25.6942 7.1272L24.344 7.69113C24.1285 7.78038 24.0059 8.01098 24.0513 8.24137C24.0968 8.47176 24.2976 8.63746 24.5306 8.63674Z" fill="#0367B4"/>
<path d="M3.19363 8.03499L4.54339 8.59891C4.79196 8.70282 5.077 8.58384 5.18003 8.33316C5.28306 8.08248 5.16508 7.79504 4.91651 7.69113L3.56626 7.1272C3.31769 7.02343 3.03277 7.14252 2.92987 7.3932C2.82697 7.64388 2.94506 7.93122 3.19363 8.03499Z" fill="#0367B4"/>
</g>
<defs>
<clipPath id="clip0_34_3416">
<rect width="27.7647" height="28" fill="white" transform="translate(0.747925)"/>
</clipPath>
</defs>
</svg>
