<svg width="28" height="28" viewBox="0 0 28 28" fill="none" xmlns="http://www.w3.org/2000/svg">
<path d="M19.7422 16.5156C16.5763 16.5156 14 19.0919 14 22.2578C14 25.3659 16.5121 28 19.7422 28C22.9081 28 25.4844 25.4237 25.4844 22.2578C25.4844 19.0919 22.9081 16.5156 19.7422 16.5156ZM21.9628 21.6073L19.5018 24.0682C19.1814 24.3887 18.6623 24.3887 18.3419 24.0682L17.1114 22.8378C16.791 22.5174 16.791 21.9982 17.1114 21.6778C17.4318 21.3574 17.951 21.3574 18.2714 21.6778L18.9219 22.3283L20.8029 20.4473C21.1233 20.1269 21.6424 20.1269 21.9628 20.4473C22.2832 20.7677 22.2832 21.2869 21.9628 21.6073Z" fill="#FF6D34"/>
<path d="M19.7422 0H3.33594C2.88252 0 2.51562 0.366898 2.51562 0.820312V23.8984C2.51562 24.3519 2.88252 24.7188 3.33594 24.7188H12.7979C12.7949 24.7102 12.7901 24.7025 12.7871 24.6939C12.5116 23.9889 12.3594 23.147 12.3594 22.2578C12.3594 18.1867 15.6711 14.875 19.7422 14.875C20.0231 14.875 20.2896 14.9272 20.5625 14.9579V0.820312C20.5625 0.366898 20.1956 0 19.7422 0ZM6.61719 16.5156C6.16416 16.5156 5.79688 16.1483 5.79688 15.6953C5.79688 15.2422 6.16416 14.875 6.61719 14.875C7.07022 14.875 7.4375 15.2422 7.4375 15.6953C7.4375 16.1483 7.07022 16.5156 6.61719 16.5156ZM6.61719 13.2344C6.16416 13.2344 5.79688 12.8671 5.79688 12.4141C5.79688 11.9609 6.16416 11.5938 6.61719 11.5938C7.07022 11.5938 7.4375 11.9609 7.4375 12.4141C7.4375 12.8671 7.07022 13.2344 6.61719 13.2344ZM6.61719 9.95312C6.16416 9.95312 5.79688 9.58584 5.79688 9.13281C5.79688 8.67967 6.16416 8.3125 6.61719 8.3125C7.07022 8.3125 7.4375 8.67967 7.4375 9.13281C7.4375 9.58584 7.07022 9.95312 6.61719 9.95312ZM6.61719 6.67188C6.16416 6.67188 5.79688 6.30459 5.79688 5.85156C5.79688 5.39842 6.16416 5.03125 6.61719 5.03125C7.07022 5.03125 7.4375 5.39842 7.4375 5.85156C7.4375 6.30459 7.07022 6.67188 6.61719 6.67188ZM13.1797 16.5156H9.89844C9.44502 16.5156 9.07812 16.1487 9.07812 15.6953C9.07812 15.2419 9.44502 14.875 9.89844 14.875H13.1797C13.6331 14.875 14 15.2419 14 15.6953C14 16.1487 13.6331 16.5156 13.1797 16.5156ZM16.4609 13.2344H9.89844C9.44502 13.2344 9.07812 12.8675 9.07812 12.4141C9.07812 11.9606 9.44502 11.5938 9.89844 11.5938H16.4609C16.9144 11.5938 17.2812 11.9606 17.2812 12.4141C17.2812 12.8675 16.9144 13.2344 16.4609 13.2344ZM16.4609 9.95312H9.89844C9.44502 9.95312 9.07812 9.58623 9.07812 9.13281C9.07812 8.6794 9.44502 8.3125 9.89844 8.3125H16.4609C16.9144 8.3125 17.2812 8.6794 17.2812 9.13281C17.2812 9.58623 16.9144 9.95312 16.4609 9.95312ZM16.4609 6.67188H9.89844C9.44502 6.67188 9.07812 6.30498 9.07812 5.85156C9.07812 5.39815 9.44502 5.03125 9.89844 5.03125H16.4609C16.9144 5.03125 17.2812 5.39815 17.2812 5.85156C17.2812 6.30498 16.9144 6.67188 16.4609 6.67188Z" fill="#FF6D34"/>
</svg>
