<svg width="28" height="28" viewBox="0 0 28 28" fill="none" xmlns="http://www.w3.org/2000/svg">
<path d="M20.8359 7.67654V13.2344H22.4766V7.67654C23.2007 7.36006 23.707 6.63775 23.707 5.79688C23.707 4.66424 22.7889 3.74609 21.6562 3.74609C20.8154 3.74609 20.0931 4.25239 19.7766 4.97656H16.4062V6.61719H19.7766C19.9833 7.09013 20.363 7.46982 20.8359 7.67654Z" fill="#03B0A9"/>
<path d="M7.16406 18.6828V14.7656H5.52344V18.6828C4.79927 18.9994 4.29297 19.7216 4.29297 20.5625C4.29297 21.6951 5.21112 22.6133 6.34375 22.6133C7.18462 22.6133 7.90688 22.107 8.22341 21.3828H11.5938V19.7422H8.22341C8.0167 19.2692 7.637 18.8896 7.16406 18.6828Z" fill="#03B0A9"/>
<path d="M15.8594 10.6641C15.8594 10.211 15.4921 9.84375 15.0391 9.84375H0.820312C0.367281 9.84375 0 10.211 0 10.6641C0 12.0232 1.10179 13.125 2.46094 13.125H13.3984C14.7576 13.125 15.8594 12.0232 15.8594 10.6641Z" fill="#03B0A9"/>
<path d="M14.7656 1.91406C14.7656 0.858648 13.907 0 12.8516 0H3.00781C1.9524 0 1.09375 0.858648 1.09375 1.91406V8.20312H14.7656V1.91406Z" fill="#03B0A9"/>
<path d="M27.1797 24.7188H12.9609C12.5079 24.7188 12.1406 25.086 12.1406 25.5391C12.1406 26.8982 13.2424 28 14.6016 28H25.5391C26.8982 28 28 26.8982 28 25.5391C28 25.086 27.6327 24.7188 27.1797 24.7188Z" fill="#03B0A9"/>
<path d="M13.2344 16.7891V23.0781H26.9062V16.7891C26.9062 15.7336 26.0476 14.875 24.9922 14.875H15.1484C14.093 14.875 13.2344 15.7336 13.2344 16.7891Z" fill="#03B0A9"/>
</svg>
