<svg width="483" height="290" viewBox="0 0 483 290" fill="none" xmlns="http://www.w3.org/2000/svg">
<g clip-path="url(#clip0_34_3028)">
<path d="M68.6514 66.1138H394.887" stroke="white" stroke-width="1.4363" stroke-miterlimit="10"/>
<path d="M390.626 246.472H72.9124C70.5562 246.472 68.6514 244.568 68.6514 242.213V48.9947C68.6514 46.6398 70.5562 44.736 72.9124 44.736H390.626C392.982 44.736 394.887 46.6398 394.887 48.9947V242.221C394.887 244.568 392.982 246.472 390.626 246.472Z" stroke="white" stroke-width="1.4363" stroke-miterlimit="10"/>
<path d="M90.1556 55.6466C90.1556 57.2905 88.8168 58.6285 87.1721 58.6285C85.5273 58.6285 84.1886 57.2905 84.1886 55.6466C84.1886 54.0028 85.5273 52.6647 87.1721 52.6647C88.8168 52.6647 90.1556 53.9951 90.1556 55.6466Z" stroke="white" stroke-width="1.4363" stroke-miterlimit="10"/>
<path d="M101.753 55.6466C101.753 57.2905 100.414 58.6285 98.7695 58.6285C97.1248 58.6285 95.786 57.2905 95.786 55.6466C95.786 54.0028 97.1248 52.6647 98.7695 52.6647C100.414 52.6647 101.753 53.9951 101.753 55.6466Z" stroke="white" stroke-width="1.4363" stroke-miterlimit="10"/>
<path d="M113.35 55.6466C113.35 57.2905 112.012 58.6285 110.367 58.6285C108.722 58.6285 107.383 57.2905 107.383 55.6466C107.383 54.0028 108.722 52.6647 110.367 52.6647C112.012 52.6647 113.35 53.9951 113.35 55.6466Z" stroke="white" stroke-width="1.4363" stroke-miterlimit="10"/>
<path d="M75.5976 181.735H11.3067C9.30244 181.735 7.68063 180.114 7.68063 178.11V141.861C7.68063 139.858 9.30244 138.237 11.3067 138.237H75.59C77.5943 138.237 79.2161 139.858 79.2161 141.861V178.11C79.2237 180.114 77.6019 181.735 75.5976 181.735Z" fill="#FADFE1"/>
<path d="M75.5976 181.735H11.3067C9.30244 181.735 7.68063 180.114 7.68063 178.11V141.861C7.68063 139.858 9.30244 138.237 11.3067 138.237H75.59C77.5943 138.237 79.2161 139.858 79.2161 141.861V178.11C79.2237 180.114 77.6019 181.735 75.5976 181.735Z" stroke="white" stroke-width="1.4363" stroke-miterlimit="10"/>
<path d="M454.205 168.836H366.383C364.218 168.836 362.466 167.085 362.466 164.921V103.395C362.466 101.231 364.218 99.4803 366.383 99.4803H454.205C456.37 99.4803 458.122 101.231 458.122 103.395V164.921C458.122 167.085 456.37 168.836 454.205 168.836Z" fill="#FADFE1"/>
<path d="M454.205 168.836H366.383C364.218 168.836 362.466 167.085 362.466 164.921V103.395C362.466 101.231 364.218 99.4803 366.383 99.4803H454.205C456.37 99.4803 458.122 101.231 458.122 103.395V164.921C458.122 167.085 456.37 168.836 454.205 168.836Z" stroke="white" stroke-width="1.4363" stroke-miterlimit="10"/>
<path d="M309.964 94.6635H258.395C257.523 94.6635 256.812 93.9524 256.812 93.0808V80.2587C256.812 79.387 257.523 78.676 258.395 78.676H309.964C310.836 78.676 311.547 79.387 311.547 80.2587V93.0808C311.547 93.96 310.836 94.6635 309.964 94.6635Z" fill="#F36867"/>
<path d="M264.4 84.3798H301.205" stroke="white" stroke-width="0.8101" stroke-miterlimit="10"/>
<path d="M264.4 88.2103H279.624" stroke="white" stroke-width="0.8101" stroke-miterlimit="10"/>
<path d="M262.886 92.8591V99.0905L270.719 92.8591H262.886Z" fill="#F36867"/>
<path d="M84.6093 26.3324H15.3842C13.9536 26.3324 12.7985 25.1702 12.7985 23.7481C12.7985 22.3183 13.9613 21.1638 15.3842 21.1638H84.6093C86.0399 21.1638 87.195 22.3259 87.195 23.7481C87.195 25.1778 86.0399 26.3324 84.6093 26.3324Z" fill="#F6BDBC"/>
<path d="M480.407 226.876H426.16C424.73 226.876 423.575 225.714 423.575 224.291C423.575 222.862 424.737 221.707 426.16 221.707H480.407C481.837 221.707 482.992 222.869 482.992 224.291C483 225.714 481.837 226.876 480.407 226.876Z" fill="#FCEEEF"/>
<path d="M243.432 11.4535H237.373C235.782 11.4535 234.489 10.1614 234.489 8.57101V2.88249C234.489 1.29215 235.782 0 237.373 0H243.432C245.023 0 246.316 1.29215 246.316 2.88249V8.57101C246.316 10.1614 245.023 11.4535 243.432 11.4535Z" fill="#F6BDBC"/>
<path d="M13.1274 229.552H5.15611C3.06 229.552 1.36169 227.854 1.36169 225.759V218.282C1.36169 216.187 3.06 214.489 5.15611 214.489H13.1274C15.2236 214.489 16.9219 216.187 16.9219 218.282V225.759C16.9219 227.854 15.2236 229.552 13.1274 229.552Z" fill="#FCEEEF"/>
<path d="M429.61 63.0325H423.903C422.404 63.0325 421.188 61.8168 421.188 60.3182V54.9661C421.188 53.4675 422.404 52.2518 423.903 52.2518H429.61C431.11 52.2518 432.326 53.4675 432.326 54.9661V60.3182C432.319 61.8168 431.11 63.0325 429.61 63.0325Z" fill="#FCEEEF"/>
<path d="M370.292 151.786C370.522 145.363 365.779 139.85 359.391 139.116C352.498 138.329 346.317 143.383 345.736 150.295C345.315 155.242 345.797 163.759 346.393 172.812L371.554 169.784L370.292 151.786Z" fill="#F8F2DA"/>
<path d="M371.547 169.792L346.386 172.819C347.181 184.801 348.184 191.666 347.625 198.494C346.99 206.201 353.072 212.8 360.806 212.815C367.944 212.83 373.811 207.18 374.071 200.054L371.547 169.792Z" fill="#FCA0A0"/>
<path d="M306.376 165.044L364.172 193.945C370.583 197.5 372.388 204.542 369.053 209.887C365.679 215.285 358.442 216.722 353.263 213.014L301.013 175.404L306.376 165.044Z" fill="#FCA0A0"/>
<path d="M297.341 178.814C303.278 180.817 309.712 177.636 311.716 171.703C313.72 165.77 310.538 159.34 304.601 157.337C298.665 155.333 292.231 158.514 290.227 164.447C288.23 170.38 291.413 176.811 297.341 178.814Z" fill="#FCA0A0"/>
<path d="M298.397 157.681C298.397 157.681 297.823 153.246 303.592 154.714C309.36 156.182 314.516 160.647 311.716 171.703L298.397 157.681Z" fill="#FCA0A0"/>
<path d="M307.225 136.219L295.008 133.367C294.327 133.206 293.692 133.68 293.578 134.414L288.888 166.129C288.781 166.871 289.24 167.597 289.921 167.758L302.138 170.61C302.819 170.77 303.454 170.296 303.569 169.562L308.258 137.847C308.373 137.106 307.906 136.379 307.225 136.219Z" fill="#37305E"/>
<path d="M308.411 136.471L296.194 133.619C295.513 133.459 294.878 133.933 294.763 134.667L290.074 166.382C289.967 167.123 290.426 167.85 291.107 168.01L303.324 170.862C304.005 171.023 304.64 170.549 304.754 169.815L309.444 138.1C309.551 137.358 309.092 136.632 308.411 136.471Z" fill="#261C42"/>
<path d="M307.738 139.56L297.005 137.052L293.18 162.903L303.913 165.411L307.738 139.56Z" fill="#E7E7E7"/>
<path d="M297.005 137.052L303.913 165.411L307.738 139.56L297.005 137.052Z" fill="white"/>
<path d="M306.805 155.93C306.805 155.93 304.448 154.806 301.809 154.477C300.646 154.332 299.529 154.966 299.078 156.044C298.665 157.031 298.902 158.162 299.675 158.904L304.028 163.071C304.028 163.071 303.331 169.249 306.246 172.162L308.87 162.352L306.805 155.93Z" fill="#FCA0A0"/>
<path d="M379.204 191.483L352.559 197.34C352.559 197.34 345.46 213.121 333.648 283.547C333.465 284.633 333.289 285.711 333.113 286.781C345.843 286.957 358.58 287.309 371.31 287.744L388.27 204.703L379.204 191.483Z" fill="#0367B4"/>
<path d="M410.401 247.894C409.498 213.817 392.225 195.398 392.225 195.398L359.421 196.422L368.165 287.637C382.303 288.096 396.44 288.662 410.577 289.174C410.7 273.019 410.677 258.247 410.401 247.894Z" fill="#0367B4"/>
<path d="M353.516 226.272L363.583 234.59L368.165 287.63" stroke="#121E35" stroke-width="1.1396" stroke-miterlimit="10" stroke-linecap="round" stroke-linejoin="round"/>
<path d="M361.716 136.616L352.414 140.539C350.922 141.181 349.981 142.679 350.058 144.3L352.559 197.332L394.925 196.82L397.427 141.999C397.503 139.078 395.162 135.576 392.248 135.347L375.012 135.034L361.716 136.616Z" fill="#F8F2DA"/>
<path d="M351.351 155.93C351.351 155.93 347.005 161.442 351.374 172.215" stroke="#121E35" stroke-width="1.1396" stroke-miterlimit="10" stroke-linecap="round" stroke-linejoin="round"/>
<path d="M413.958 159.791L391.697 171.887C396.861 182.728 402.568 194.358 404.572 200.918C406.829 208.312 414.922 212.203 422.113 209.359C428.754 206.737 432.12 199.328 429.725 192.599L413.958 159.791Z" fill="#FCA0A0"/>
<path d="M406.148 143.521C403.99 137.465 397.541 134.093 391.337 135.775C384.644 137.587 384.812 153.154 386.824 159.791C388.262 164.547 387.803 163.698 391.705 171.887L413.966 159.791L406.148 143.521Z" fill="#F8F2DA"/>
<path d="M391.475 171.887L386.602 159.791" stroke="#121E35" stroke-width="1.1396" stroke-miterlimit="10" stroke-linecap="round" stroke-linejoin="round"/>
<path d="M359.322 186.827L418.602 188.111C424.89 188.44 429.633 193.953 429.014 200.215C428.386 206.553 422.534 211.041 416.246 210.009L359.888 200.283L359.322 186.827Z" fill="#FCA0A0"/>
<path d="M360.301 203.9C366.505 203.067 370.866 197.363 370.032 191.162C369.198 184.961 363.491 180.603 357.287 181.436C351.083 182.27 346.722 187.974 347.556 194.174C348.39 200.375 354.097 204.726 360.301 203.9Z" fill="#FCA0A0"/>
<path d="M351.878 184.487C351.878 184.487 349.4 180.764 355.222 179.525C361.043 178.286 367.645 180.007 370.04 191.154L351.878 184.487Z" fill="#FCA0A0"/>
<path d="M396.409 117.717C396.511 110.273 390.555 104.157 383.107 104.055C375.659 103.954 369.539 109.906 369.438 117.35C369.337 124.794 375.292 130.911 382.74 131.012C390.188 131.113 396.308 125.161 396.409 117.717Z" fill="#121E35"/>
<path d="M341.061 84.2345C341.061 84.2345 362.841 71.4124 377.766 84.762C386.854 92.8896 383.404 106.186 371.21 114.428C359.597 122.28 355.306 85.6184 355.306 85.6184L341.061 84.2345Z" fill="#121E35"/>
<path d="M352.995 80.9085C352.995 80.9085 331.805 82.0477 333.289 98.0735C334.276 108.717 350.861 108.365 350.861 108.365L352.995 80.9085Z" fill="#121E35"/>
<path d="M349.216 109.94C350.127 112.876 348.489 115.995 345.552 116.905C342.614 117.815 339.493 116.179 338.583 113.243C337.672 110.307 339.309 107.187 342.247 106.277C345.185 105.368 348.306 107.004 349.216 109.94Z" fill="#EA8C8C"/>
<path d="M356.308 125.843L360.355 139.124C361.762 143.788 364.264 145.707 368.846 144.277C372.755 143.062 376.94 139.613 376.221 135.576L368.846 114.986L356.308 125.843Z" fill="#FCA0A0"/>
<path d="M362.022 136.203L357.31 138.253C357.31 138.253 349.981 150.494 363.973 150.952C380.857 151.503 382.234 141.754 384.927 135.225L376.297 134.399L362.022 136.203Z" fill="#FCA0A0"/>
<path d="M358.442 132.87C358.442 132.87 370.162 131.149 370.162 115.514L355.864 124.49L358.442 132.87Z" fill="#121E35"/>
<path d="M360.921 127.051C352.957 128.955 344.894 124.238 343.119 117.792L339.019 102.554C336.793 94.4723 341.383 86.0848 349.385 83.5922C357.585 81.0462 367.729 85.1749 370.284 93.3636L373.452 105.651C375.9 115.17 370.3 124.138 360.921 127.051Z" fill="#FCA0A0"/>
<path d="M359.85 91.2075C359.903 100.964 369.175 106.163 369.175 106.163L375.769 92.7978C375.777 92.7978 359.804 83.1946 359.85 91.2075Z" fill="#121E35"/>
<path d="M362.55 92.9355C362.55 92.9355 343.165 91.1693 336.976 100.444C336.976 100.444 336.441 81.4896 357.241 80.3809C378.042 79.2723 372.006 93.9524 372.006 93.9524L362.55 92.9355Z" fill="#121E35"/>
<path d="M350.31 111.37L350.639 114.336L352.628 113.946" stroke="#121E35" stroke-width="1.1013" stroke-miterlimit="10" stroke-linecap="round" stroke-linejoin="round"/>
<path d="M346.898 109.665C347.105 110.437 346.653 111.232 345.881 111.438C345.108 111.645 344.313 111.194 344.106 110.422C343.9 109.649 344.351 108.854 345.124 108.648C345.896 108.434 346.692 108.892 346.898 109.665Z" fill="#121E35"/>
<path d="M358.641 106.476C358.848 107.248 358.396 108.044 357.624 108.25C356.851 108.457 356.055 108.005 355.849 107.233C355.642 106.461 356.094 105.666 356.866 105.459C357.631 105.253 358.427 105.712 358.641 106.476Z" fill="#121E35"/>
<path d="M351.511 102.89L360.072 102.019C360.072 102.019 358.725 99.7173 355.237 100.107C351.748 100.505 351.511 102.89 351.511 102.89Z" fill="#121E35"/>
<path d="M347.189 104.221L341.161 106.163C341.161 106.163 341.329 103.838 343.792 103.074C346.256 102.309 347.189 104.221 347.189 104.221Z" fill="#121E35"/>
<path d="M350.218 117.532L358.947 115.514C358.947 115.514 358.259 119.665 353.638 119.742C350.44 119.803 350.218 117.532 350.218 117.532Z" fill="white"/>
<path d="M377.552 104.152C377.751 106.989 375.609 109.451 372.771 109.649C369.933 109.848 367.469 107.707 367.27 104.871C367.071 102.034 369.213 99.572 372.052 99.3733C374.897 99.1668 377.361 101.308 377.552 104.152Z" fill="#FCA0A0"/>
<path d="M370.72 106.155C370.72 106.155 370.46 102.432 374.064 102.768" stroke="#121E35" stroke-width="0.981" stroke-miterlimit="10" stroke-linecap="round" stroke-linejoin="round"/>
<path d="M85.1066 246.824V285.718L120.251 286.621V258.759L127.84 257.436L132.935 285.718L164.728 287.737L152.35 229.353L85.1066 246.824Z" fill="#171D5F"/>
<path d="M56.3501 182.797L43.6664 268.186L57.3829 269.67L80.0805 182.063L56.3501 182.797Z" fill="#F29891"/>
<path d="M43.6664 268.186C43.6664 268.186 20.9611 273.416 21.8638 279.464H49.5492C49.5492 279.464 60.0298 278.661 57.3829 269.67L43.6664 268.186Z" fill="#F29891"/>
<path d="M90.0715 145.356C90.0715 145.356 61.8734 143.039 46.2291 185.122L81.0215 197.615L90.0715 145.356Z" fill="#FF6D34"/>
<path d="M189.744 115.307L177.374 156.626L191.809 172.949C191.809 172.949 200.79 136.517 201.073 115.43L189.744 115.307Z" fill="#FCA0A0"/>
<path d="M189.254 116.492C189.254 116.492 200.331 117.96 201.884 115.193C204.6 110.36 203.162 97.2325 203.162 97.2325C203.162 97.2325 183.731 97.6607 183.983 97.8442C184.251 98.0277 189.254 116.492 189.254 116.492Z" fill="#FCA0A0"/>
<path d="M189.254 116.492C189.048 115.521 181.597 107.134 178.919 103.946C178.269 103.173 178.491 101.958 179.378 101.392C179.959 101.017 180.977 100.696 181.811 101.407L188.956 106.935L189.254 116.492Z" fill="#FCA0A0"/>
<path d="M185.307 105.781L182.392 90.1601C182.178 89.1279 182.874 88.0804 183.914 87.874C184.81 87.6981 185.659 88.218 185.903 89.0973L188.971 100.367L185.307 105.781Z" fill="#FCA0A0"/>
<path d="M188.933 98.1194L188.726 86.2148C188.688 85.1826 189.507 84.2727 190.524 84.2116C191.411 84.158 192.161 84.7697 192.299 85.649L194.173 98.7464L188.933 98.1194Z" fill="#FCA0A0"/>
<path d="M194.403 99.4574L195.313 87.3082C195.39 86.1842 196.353 85.2896 197.455 85.3202C198.488 85.3508 199.276 86.1842 199.268 87.247L199.146 98.4176L194.403 99.4574Z" fill="#FCA0A0"/>
<path d="M203.17 97.2325L204.585 89.449C204.615 88.585 203.988 87.8893 203.147 87.851C202.343 87.8128 201.601 88.3939 201.418 89.2043L199.146 98.4176L203.17 97.2325Z" fill="#FCA0A0"/>
<path d="M185.659 104.374C185.659 104.374 191.297 101.392 195.053 108.984" stroke="#282828" stroke-width="1.1831" stroke-miterlimit="10" stroke-linecap="round" stroke-linejoin="round"/>
<path d="M192.704 162.238C192.704 162.238 194.341 178.294 185.284 179.716C176.226 181.138 156.191 168.645 156.191 168.645L146.919 137.274L181.696 156.526L192.704 162.238Z" fill="#FCA0A0"/>
<path d="M122.684 139.552C122.684 139.552 141.939 126.784 171.881 146.801L154.309 174.578L136.821 172.965L122.684 139.552Z" fill="#FF6D34"/>
<path d="M77.2194 191.965L81.6029 247.986L159.136 236.945L147.141 155.387L122.684 139.552L90.0715 145.356L77.2194 191.965Z" fill="#FF6D34"/>
<path d="M77.5637 196.376L75.5058 177.522" stroke="#121E35" stroke-width="1.1396" stroke-miterlimit="10" stroke-linecap="round" stroke-linejoin="round"/>
<path d="M149.902 174.165L146.911 157.895" stroke="#121E35" stroke-width="1.1396" stroke-miterlimit="10" stroke-linecap="round" stroke-linejoin="round"/>
<path d="M96.0691 141.104L92.4812 119.237L112.647 115.927L116.235 137.794L122.684 139.545C122.684 139.545 122.76 148.834 107.904 151.48C93.0473 154.125 90.0715 145.348 90.0715 145.348L96.0691 141.104Z" fill="#FCA0A0"/>
<path d="M113.779 122.846C113.779 122.846 113.442 131.432 106.083 133.619C97.6144 136.135 93.644 126.363 93.644 126.363C93.644 126.363 98.2188 130.347 104.27 129.36C111.01 128.267 113.779 122.846 113.779 122.846Z" fill="#121E35"/>
<path d="M89.6277 83.9057C89.6277 83.9057 93.2156 75.0212 105.287 76.4816C113.81 77.5138 116.655 84.4562 118.155 87.614C118.728 88.822 118.981 90.1601 118.889 91.4981L117.237 106.385L103.099 87.4152L91.4561 89.5102L89.6277 83.9057Z" fill="#121E35"/>
<path d="M117.237 106.385C117.237 106.385 118.522 103.8 121.796 104.68C125.07 105.559 124.405 113.365 119.769 114.81C119.769 114.81 118.109 115.346 116.663 114.321C116.663 114.321 117.267 108.548 117.237 106.385Z" fill="#FCA0A0"/>
<path d="M121.444 107.447C121.444 107.447 118.713 106.828 117.221 110.903" stroke="#131313" stroke-width="0.6978" stroke-miterlimit="10" stroke-linecap="round" stroke-linejoin="round"/>
<path d="M84.9383 109.596C84.9383 109.596 83.1635 107.317 80.1264 108.824C77.0894 110.33 79.2773 117.853 84.1121 118.358C84.1121 118.358 85.8487 118.557 87.0574 117.265C87.0574 117.265 85.3285 111.721 84.9383 109.596Z" fill="#FCA0A0"/>
<path d="M81.0215 111.461C81.0215 111.461 83.5766 110.315 85.841 114.023" stroke="#131313" stroke-width="0.6978" stroke-miterlimit="10" stroke-linecap="round" stroke-linejoin="round"/>
<path d="M116.831 99.0827C117.29 103.701 117.803 113.403 115.531 119.421C113.396 125.071 110.038 127.839 104.27 128.58C98.5018 129.33 93.2156 128.099 89.0693 121.455C84.923 114.81 83.8596 102.447 83.8596 102.447C83.8596 102.447 82.2149 85.9548 98.5247 84.3339C115.707 82.6288 116.831 99.0827 116.831 99.0827Z" fill="#FCA0A0"/>
<path d="M84.9383 109.596L80.5701 95.3975C80.2871 94.2353 80.333 93.012 80.7231 91.8804C81.7023 89.0514 84.7012 82.7053 89.6354 83.8981L91.4638 89.5102C91.4638 89.5102 85.5274 91.3299 83.8903 99.488L84.9383 109.596Z" fill="#121E35"/>
<path d="M87.7306 88.7456C87.7306 88.7456 98.6319 99.5568 117.902 96.4603C117.902 96.4603 114.674 82.6671 105.616 82.5677C96.5587 82.4683 89.4671 87.1705 89.4671 87.1705L87.7306 88.7456Z" fill="#121E35"/>
<path d="M91.4561 89.5102C91.4561 89.5102 89.536 96.1544 83.7602 101.522C83.7678 101.529 81.1515 88.5162 91.4561 89.5102Z" fill="#121E35"/>
<path d="M106.519 106.094C106.641 106.889 107.391 107.432 108.187 107.31C108.982 107.187 109.525 106.438 109.403 105.643C109.281 104.848 108.531 104.305 107.735 104.427C106.932 104.55 106.389 105.299 106.519 106.094Z" fill="#121E35"/>
<path d="M93.0014 108.212C93.1238 109.007 93.8735 109.55 94.6691 109.428C95.4647 109.305 96.0079 108.556 95.8855 107.761C95.7631 106.966 95.0134 106.423 94.2178 106.545C93.4222 106.667 92.879 107.417 93.0014 108.212Z" fill="#121E35"/>
<path d="M96.2144 101.032L86.9196 105.054C86.9196 105.054 86.9349 102.271 90.7447 100.658C94.5544 99.0522 96.2144 101.032 96.2144 101.032Z" fill="#121E35"/>
<path d="M103.031 100.084L113.113 101.063C113.113 101.063 112.249 98.4176 108.126 98.0506C104.002 97.6912 103.031 100.084 103.031 100.084Z" fill="#121E35"/>
<path d="M100.498 110.574L100.919 112.624C101.026 113.143 101.562 113.434 102.036 113.228L103.077 112.776" stroke="#121E35" stroke-width="1.0257" stroke-miterlimit="10" stroke-linecap="round" stroke-linejoin="round"/>
<path d="M97.4614 117.318L107.957 114.948C107.957 114.948 108.822 119.023 103.658 120.025C98.4941 121.026 97.4614 117.318 97.4614 117.318Z" fill="white"/>
<path d="M458.841 278.547H0V290H458.841V278.547Z" fill="#F6BDBC"/>
<path d="M201.93 256.779H179.026C173.013 256.779 168.14 261.649 168.14 267.659C168.14 273.668 173.013 278.539 179.026 278.539H205.969L201.93 256.779Z" fill="#FCA0A0"/>
<path d="M170.657 260.701L184.871 237.435L205.969 240.287L202.841 267.666L170.657 260.701Z" fill="#FCA0A0"/>
<path d="M196.269 256.779H179.026" stroke="#121E35" stroke-width="1.1396" stroke-miterlimit="10" stroke-linecap="round" stroke-linejoin="round"/>
<path d="M273.626 256.779H296.53C302.543 256.779 307.416 261.649 307.416 267.659C307.416 273.668 302.543 278.539 296.53 278.539H269.587L273.626 256.779Z" fill="#FCA0A0"/>
<path d="M304.655 260.426L286.754 232.855L269.587 240.287L272.716 267.666L304.655 260.426Z" fill="#FCA0A0"/>
<path d="M274.919 256.779H296.523" stroke="#121E35" stroke-width="1.1396" stroke-miterlimit="10" stroke-linecap="round" stroke-linejoin="round"/>
<path d="M235.858 196.629C235.858 196.629 213.053 196.629 196.269 213.128V259.363C196.269 259.363 276.602 260.586 276.602 259.363C276.602 258.14 276.625 210.07 276.625 210.07C276.625 210.07 260.185 196.629 235.858 196.629Z" fill="#8A88F3"/>
<path d="M199.666 210.07C199.666 210.07 187.273 220.071 174.206 242.091C174.206 242.091 177.022 254.829 201.364 256.786L199.666 210.07Z" fill="#8A88F3"/>
<path d="M276.617 210.07C276.617 210.07 289.01 220.071 302.077 242.091C302.077 242.091 299.262 254.829 274.919 256.786L276.617 210.07Z" fill="#8A88F3"/>
<path d="M272.953 278.546H199.911C197.899 278.546 196.269 276.918 196.269 274.907V228.818C196.269 226.807 197.899 225.178 199.911 225.178H272.953C274.965 225.178 276.594 226.807 276.594 228.818V274.907C276.594 276.918 274.965 278.546 272.953 278.546Z" fill="#FFE6E9"/>
<path d="M236.432 256.786C239.153 256.786 241.358 254.582 241.358 251.862C241.358 249.143 239.153 246.938 236.432 246.938C233.711 246.938 231.505 249.143 231.505 251.862C231.505 254.582 233.711 256.786 236.432 256.786Z" fill="white"/>
<path d="M244.12 186.888H228.361V204.527H244.12V186.888Z" fill="#FCA0A0"/>
<path d="M227.588 185.932C227.588 185.932 228.981 194.694 235.583 194.855C244.258 195.061 244.112 186.322 244.112 186.322C244.112 186.322 242.927 188.891 236.225 188.906C228.751 188.914 227.588 185.932 227.588 185.932Z" fill="#121E35"/>
<path d="M236.271 179.754C248.376 179.754 258.189 169.697 258.189 157.291C258.189 144.884 248.376 134.827 236.271 134.827C224.167 134.827 214.354 144.884 214.354 157.291C214.354 169.697 224.167 179.754 236.271 179.754Z" fill="#121E35"/>
<path d="M255.213 165.487C255.213 165.487 256.789 162.979 260.047 164.21C263.299 165.441 261.83 173.339 256.949 174.349C256.949 174.349 255.197 174.731 253.828 173.531C253.828 173.531 255.029 167.697 255.213 165.487Z" fill="#FCA0A0"/>
<path d="M259.397 166.993C259.397 166.993 256.674 166.083 254.738 170.098" stroke="#131313" stroke-width="0.7753" stroke-miterlimit="10" stroke-linecap="round" stroke-linejoin="round"/>
<path d="M217.842 165.487C217.842 165.487 216.266 162.979 213.007 164.21C209.756 165.441 211.225 173.339 216.106 174.349C216.106 174.349 217.858 174.731 219.227 173.531C219.235 173.531 218.034 167.697 217.842 165.487Z" fill="#FCA0A0"/>
<path d="M213.658 166.993C213.658 166.993 216.381 166.083 218.317 170.098" stroke="#131313" stroke-width="0.7753" stroke-miterlimit="10" stroke-linecap="round" stroke-linejoin="round"/>
<path d="M255.519 158.675C255.519 163.736 254.998 174.326 251.717 180.611C248.634 186.513 243.539 189.686 236.853 189.877C230.166 190.069 225.186 187.622 221.201 179.968C217.207 172.307 217.399 158.766 217.399 158.766C217.399 158.766 217.399 140.684 236.256 140.684C256.108 140.684 255.519 158.675 255.519 158.675Z" fill="#FCA0A0"/>
<path d="M217.842 165.487C217.842 165.487 221.866 156.664 218.317 150.31C218.317 150.302 215.104 160.525 217.842 165.487Z" fill="#121E35"/>
<path d="M255.159 165.487C255.159 165.487 251.135 156.664 254.685 150.31C254.685 150.302 257.898 160.525 255.159 165.487Z" fill="#121E35"/>
<path d="M246.04 141.701C246.04 141.701 244.181 152.397 255.251 157.26C255.259 157.26 254.8 144.744 246.04 141.701Z" fill="#121E35"/>
<path d="M248.534 143.039C248.534 143.039 246.874 153.712 232.354 151.335C221.055 149.484 217.605 158.116 217.605 158.116C217.605 158.116 215.601 142.068 233.846 138.78C233.846 138.788 243.179 138.734 248.534 143.039Z" fill="#121E35"/>
<path d="M229.761 167.391C229.761 168.339 228.988 169.111 228.04 169.111C227.091 169.111 226.318 168.339 226.318 167.391C226.318 166.443 227.091 165.671 228.04 165.671C228.988 165.663 229.761 166.435 229.761 167.391Z" fill="#121E35"/>
<path d="M243.99 169.111C244.941 169.111 245.711 168.341 245.711 167.391C245.711 166.441 244.941 165.671 243.99 165.671C243.039 165.671 242.269 166.441 242.269 167.391C242.269 168.341 243.039 169.111 243.99 169.111Z" fill="#121E35"/>
<path d="M235.147 171.137V173.462C235.147 174.05 235.667 174.486 236.225 174.372L237.465 174.112" stroke="#121E35" stroke-width="1.1396" stroke-miterlimit="10" stroke-linecap="round" stroke-linejoin="round"/>
<path d="M233.158 162.046L222.708 163.3C222.708 163.3 223.549 160.533 227.818 160.058C232.087 159.584 233.158 162.046 233.158 162.046Z" fill="#121E35"/>
<path d="M239.178 162.046L249.628 163.3C249.628 163.3 248.787 160.533 244.518 160.058C240.249 159.584 239.178 162.046 239.178 162.046Z" fill="#121E35"/>
<path d="M231.381 172.374C234.165 169.592 234.165 165.08 231.381 162.297C228.596 159.514 224.082 159.514 221.298 162.297C218.513 165.08 218.513 169.592 221.298 172.374C224.082 175.157 228.596 175.157 231.381 172.374Z" stroke="white" stroke-width="1.2497" stroke-miterlimit="10"/>
<path d="M253.464 168.954C254.365 165.123 251.987 161.287 248.154 160.387C244.321 159.486 240.483 161.862 239.582 165.693C238.681 169.525 241.058 173.361 244.891 174.261C248.725 175.161 252.563 172.786 253.464 168.954Z" stroke="white" stroke-width="1.2497" stroke-miterlimit="10"/>
<path d="M233.464 167.926C233.464 167.926 235.98 164.057 239.392 167.926" stroke="white" stroke-width="1.2497" stroke-miterlimit="10"/>
<path d="M230.312 177.522C230.312 177.522 231.36 178.875 236.019 178.875C240.257 178.875 242.177 177.522 242.177 177.522" stroke="#121E35" stroke-width="1.1396" stroke-miterlimit="10" stroke-linecap="round" stroke-linejoin="round"/>
<path d="M235.858 196.629C235.858 196.629 226.234 196.109 213.658 201.667C213.658 201.667 213.398 212.509 235.093 212.509C256.796 212.509 258.724 200.627 258.724 200.627C258.724 200.627 244.946 195.711 235.858 196.629Z" fill="#FCA0A0"/>
<path d="M244.12 142.45C252.021 142.45 258.426 136.049 258.426 128.152C258.426 120.256 252.021 113.855 244.12 113.855C236.219 113.855 229.815 120.256 229.815 128.152C229.815 136.049 236.219 142.45 244.12 142.45Z" fill="#121E35"/>
</g>
<defs>
<clipPath id="clip0_34_3028">
<rect width="483" height="290" fill="white"/>
</clipPath>
</defs>
</svg>
