<svg width="152" height="65" viewBox="0 0 152 65" fill="none" xmlns="http://www.w3.org/2000/svg">
<rect width="151.541" height="64.0312" fill="#0367B4"/>
<g clip-path="url(#clip0_825_130)">
<path d="M58.1662 39.0108L56.9467 36.764C56.866 36.775 56.7854 36.775 56.6946 36.775H55.1025V39.0108H53.7524V31.413H56.6946C58.5183 31.413 59.5562 32.3573 59.5562 34.0292C59.5562 35.2229 59.0622 36.0803 58.156 36.4925L59.7082 39.0108H58.1662ZM55.1025 35.4944H56.6946C57.7019 35.4944 58.2662 35.0273 58.2662 34.072C58.2662 33.1388 57.7019 32.6826 56.6946 32.6826H55.1025V35.4944Z" fill="white"/>
<path d="M66.0661 36.6014H62.0861C62.2575 37.4258 62.8423 37.9259 63.6281 37.9259C64.1822 37.9259 64.6966 37.6984 65.0793 37.2752L65.7845 38.0677C65.2507 38.6976 64.4649 39.0658 63.5168 39.0658C61.8442 39.0658 60.7461 37.8721 60.7461 36.1243C60.7461 34.3557 61.8748 33.1608 63.4872 33.1608C65.3813 33.1608 66.1968 34.4953 66.0661 36.6014ZM64.8772 35.6572C64.8466 34.7998 64.3129 34.2567 63.4964 34.2567C62.7208 34.2567 62.1759 34.7998 62.0554 35.6572H64.8772Z" fill="white"/>
<path d="M67.8092 33.2036L69.2206 37.6214L70.6014 33.2036H71.922L69.8666 39.0108H68.5164L66.4407 33.2146L67.8092 33.2036Z" fill="white"/>
<path d="M77.9258 36.1023C77.9258 37.871 76.7777 39.0658 75.0938 39.0658C73.3905 39.0658 72.2424 37.8721 72.2424 36.1023C72.2424 34.3436 73.3915 33.1608 75.0938 33.1608C76.7777 33.1608 77.9258 34.3436 77.9258 36.1023ZM73.563 36.1232C73.563 37.1653 74.1876 37.882 75.0948 37.882C75.9817 37.882 76.6062 37.1653 76.6062 36.1232C76.6062 35.0812 75.9817 34.3645 75.0948 34.3645C74.1876 34.3656 73.563 35.0812 73.563 36.1232Z" fill="white"/>
<path d="M80.6761 30.9568V39.0108H79.3657V30.9568H80.6761Z" fill="white"/>
<path d="M87.5892 33.2036V39.0108H86.2686V37.9358C85.8961 38.7063 85.2511 39.0647 84.3939 39.0647C83.1845 39.0647 82.4385 38.2073 82.4385 36.8399V33.2036H83.7581V36.4276C83.7581 37.2422 84.1918 37.7302 84.9174 37.7302C85.7634 37.7192 86.2676 37.0025 86.2676 36.0693V33.2036H87.5892Z" fill="white"/>
<path d="M92.6265 38.6525C92.2132 38.924 91.7499 39.0757 91.2763 39.0757C90.3997 39.0757 89.6945 38.5327 89.6945 37.3389V34.4733H88.9383L88.9281 33.4422H89.6935V31.8461H90.9936V33.4422H92.5357V34.4733H90.9936V37.0894C90.9936 37.6434 91.2049 37.827 91.558 37.827C91.7795 37.827 92.0315 37.7401 92.3234 37.5884L92.6265 38.6525Z" fill="white"/>
<path d="M95.2667 31.5439C95.2667 32.0001 94.9748 32.3255 94.5615 32.3255C94.1482 32.3255 93.8563 32.0001 93.8563 31.5439C93.8563 31.0877 94.1482 30.7624 94.5615 30.7624C94.9748 30.7613 95.2667 31.0877 95.2667 31.5439ZM95.2167 33.2037V39.0109H93.9063V33.2037H95.2167Z" fill="white"/>
<path d="M102.28 36.1023C102.28 37.871 101.131 39.0658 99.4478 39.0658C97.7445 39.0658 96.5954 37.8721 96.5954 36.1023C96.5954 34.3436 97.7445 33.1608 99.4478 33.1608C101.132 33.1608 102.28 34.3436 102.28 36.1023ZM97.917 36.1232C97.917 37.1653 98.5415 37.882 99.4488 37.882C100.336 37.882 100.96 37.1653 100.96 36.1232C100.96 35.0812 100.336 34.3645 99.4488 34.3645C98.5415 34.3656 97.917 35.0812 97.917 36.1232Z" fill="white"/>
<path d="M108.91 35.3856V39.0108H107.591V35.7978C107.591 34.9832 107.137 34.4842 106.391 34.4842C105.505 34.4952 104.981 35.2009 104.981 36.1561V39.0108H103.671V33.2036H104.981V34.2885C105.364 33.518 106.039 33.1596 106.916 33.1487C108.154 33.1498 108.91 34.0071 108.91 35.3856Z" fill="white"/>
<path d="M111.993 31.5439C111.993 32.0001 111.701 32.3255 111.288 32.3255C110.875 32.3255 110.583 32.0001 110.583 31.5439C110.583 31.0877 110.875 30.7624 111.288 30.7624C111.701 30.7613 111.993 31.0877 111.993 31.5439ZM111.943 33.2037V39.0109H110.633V33.2037H111.943Z" fill="white"/>
<path d="M115.429 34.2457C115.006 34.2457 114.704 34.3974 114.704 34.7557C114.704 35.7329 117.556 35.2229 117.556 37.3059C117.556 38.4886 116.578 39.0646 115.43 39.0646C114.614 39.0646 113.768 38.7821 113.204 38.2501L113.657 37.2619C114.151 37.7181 114.897 37.9786 115.48 37.9786C115.933 37.9786 116.276 37.8159 116.276 37.4356C116.276 36.3606 113.465 36.9475 113.475 34.8854C113.475 33.6917 114.422 33.1376 115.511 33.1376C116.216 33.1376 116.952 33.3652 117.486 33.7565L117.012 34.7766C116.488 34.4413 115.893 34.2457 115.429 34.2457Z" fill="white"/>
<path d="M120.286 31.5439C120.286 32.0001 119.994 32.3255 119.581 32.3255C119.168 32.3255 118.876 32.0001 118.876 31.5439C118.876 31.0877 119.168 30.7624 119.581 30.7624C119.994 30.7613 120.286 31.0877 120.286 31.5439ZM120.236 33.2037V39.0109H118.926V33.2037H120.236Z" fill="white"/>
<path d="M127.349 35.3856V39.0108H126.029V35.7978C126.029 34.9832 125.576 34.4842 124.83 34.4842C123.943 34.4952 123.419 35.2009 123.419 36.1561V39.0108H122.109V33.2036H123.419V34.2885C123.802 33.518 124.477 33.1596 125.354 33.1487C126.594 33.1498 127.349 34.0071 127.349 35.3856Z" fill="white"/>
<path d="M134 33.2036V38.4568C134 40.1177 132.881 41.1708 131.178 41.1708C130.312 41.1708 129.536 40.8663 128.9 40.4002L129.425 39.3801C129.919 39.7704 130.463 39.988 131.108 39.988C132.075 39.988 132.69 39.4131 132.69 38.4898V37.8061C132.327 38.3919 131.743 38.7173 130.976 38.7173C129.545 38.7173 128.578 37.5884 128.578 35.9165C128.578 34.2776 129.535 33.1597 130.936 33.1597C131.712 33.1487 132.317 33.485 132.69 34.0709V33.2025H134V33.2036ZM132.69 35.9495C132.69 34.9723 132.105 34.2886 131.259 34.2886C130.412 34.2886 129.828 34.9833 129.818 35.9495C129.828 36.9267 130.403 37.6104 131.259 37.6104C132.105 37.6104 132.69 36.9267 132.69 35.9495Z" fill="white"/>
<path d="M58.9224 43.3373V44.6069H55.1035V46.4844H58.5295V47.754H55.1035V49.6645H59.0438V50.9341H53.7534V43.3363H58.9224V43.3373Z" fill="white"/>
<path d="M65.8151 42.8823V50.9363H64.5047V50.003C64.122 50.6439 63.4964 51.0011 62.6912 51.0011C61.1492 51.0011 60.1215 49.7854 60.1215 48.0167C60.1215 46.258 61.1492 45.0752 62.6606 45.0752C63.4872 45.0752 64.1118 45.4336 64.5047 46.0843V42.8823H65.8151ZM64.5047 48.0486C64.5047 47.0065 63.8802 46.28 62.9729 46.28C62.0758 46.28 61.4513 47.0175 61.4411 48.0486C61.4513 49.0907 62.0656 49.8173 62.9729 49.8173C63.8802 49.8173 64.5047 49.0907 64.5047 48.0486Z" fill="white"/>
<path d="M72.7271 45.1291V50.9363H71.4066V49.8612C71.0341 50.6318 70.3891 50.9901 69.5329 50.9901C68.3235 50.9901 67.5775 50.1327 67.5775 48.7653V45.1291H68.8971V48.3531C68.8971 49.1676 69.3308 49.6557 70.0564 49.6557C70.9024 49.6447 71.4066 48.928 71.4066 47.9948V45.1291H72.7271Z" fill="white"/>
<path d="M76.9082 46.3228C76.0418 46.3228 75.4366 47.0175 75.4366 48.0375C75.4366 49.0796 76.0418 49.7743 76.9082 49.7743C77.5328 49.7743 78.0369 49.5468 78.3594 49.0906L79.1759 49.8183C78.7023 50.5559 77.8961 50.99 76.8378 50.99C75.2254 50.99 74.1171 49.7963 74.1171 48.0485C74.1171 46.2799 75.2356 45.0851 76.8582 45.0851C77.8461 45.0851 78.6319 45.4764 79.1156 46.1491L78.3196 46.9636C77.9767 46.5613 77.5032 46.3228 76.9082 46.3228Z" fill="white"/>
<path d="M83.5387 50.9352V50.2295C83.1662 50.7395 82.5611 51 81.7957 51C80.6373 51 79.9117 50.2295 79.9117 49.1984C79.9117 48.1233 80.6476 47.4616 81.9569 47.4506H83.5285V47.2989C83.5285 46.6262 83.1152 46.2239 82.309 46.2239C81.8048 46.2239 81.2609 46.4086 80.7067 46.7669L80.2332 45.7897C81.0088 45.3225 81.614 45.073 82.6019 45.073C84.0123 45.073 84.8083 45.8436 84.8185 47.1352L84.8287 50.9341H83.5387V50.9352ZM83.5285 48.917V48.396H82.1682C81.4732 48.396 81.1507 48.6026 81.1507 49.1126C81.1507 49.6007 81.513 49.9162 82.1079 49.9162C82.8631 49.9151 83.4581 49.4809 83.5285 48.917Z" fill="white"/>
<path d="M89.7057 50.5768C89.2924 50.8484 88.8291 51 88.3556 51C87.4789 51 86.7737 50.457 86.7737 49.2633V46.3976H86.0175L86.0073 45.3666H86.7727V43.7705H88.0729V45.3666H89.6149V46.3976H88.0729V49.0138C88.0729 49.5678 88.2851 49.7513 88.6372 49.7513C88.8587 49.7513 89.1107 49.6645 89.4026 49.5128L89.7057 50.5768Z" fill="white"/>
<path d="M92.3449 43.4682C92.3449 43.9244 92.053 44.2497 91.6397 44.2497C91.2264 44.2497 90.9345 43.9244 90.9345 43.4682C90.9345 43.012 91.2264 42.6866 91.6397 42.6866C92.053 42.6866 92.3449 43.012 92.3449 43.4682ZM92.2949 45.1291V50.9363H90.9845V45.1291H92.2949Z" fill="white"/>
<path d="M99.358 48.0266C99.358 49.7952 98.2089 50.99 96.526 50.99C94.8227 50.99 93.6746 49.7963 93.6746 48.0266C93.6746 46.2678 94.8227 45.0851 96.526 45.0851C98.2099 45.0851 99.358 46.2678 99.358 48.0266ZM94.9952 48.0485C94.9952 49.0906 95.6198 49.8073 96.527 49.8073C97.4139 49.8073 98.0384 49.0906 98.0384 48.0485C98.0384 47.0065 97.4139 46.2898 96.527 46.2898C95.6198 46.2898 94.9952 47.0065 94.9952 48.0485Z" fill="white"/>
<path d="M105.988 47.3099V50.9351H104.669V47.7221C104.669 46.9076 104.216 46.4086 103.47 46.4086C102.583 46.4196 102.059 47.1253 102.059 48.0805V50.9351H100.749V45.128H102.059V46.2129C102.442 45.4424 103.118 45.084 103.994 45.073C105.233 45.0741 105.988 45.9315 105.988 47.3099Z" fill="white"/>
<path d="M59.2296 21.1552C59.2296 22.8601 58.1223 24.011 56.5007 24.011C54.8597 24.011 53.7524 22.8601 53.7524 21.1552C53.7524 19.4613 54.8597 18.3203 56.5007 18.3203C58.1223 18.3214 59.2296 19.4613 59.2296 21.1552ZM55.025 21.1761C55.025 22.1808 55.6271 22.87 56.5007 22.87C57.3549 22.87 57.957 22.1797 57.957 21.1761C57.957 20.1725 57.3549 19.4822 56.5007 19.4822C55.6271 19.4822 55.025 20.1725 55.025 21.1761Z" fill="white"/>
<path d="M65.6182 20.4637V23.9571H64.3466V20.8617C64.3466 20.0768 63.9098 19.5965 63.1913 19.5965C62.3371 19.6063 61.832 20.2868 61.832 21.2068V23.9571H60.5696V18.362H61.832V19.4074C62.2014 18.6643 62.8515 18.3192 63.6965 18.3093C64.8905 18.3093 65.6182 19.1359 65.6182 20.4637Z" fill="white"/>
<path d="M69.0715 29.319H50.2988V13H69.0715V29.319ZM51.3071 28.2341H68.0643V14.0849H51.3071V28.2341Z" fill="white"/>
<path d="M37.0707 34.4117C37.0707 34.8997 37.434 35.2152 38.0279 35.2152C38.7842 35.2152 39.3781 34.781 39.4485 34.2171V33.6961H38.0882C37.3932 33.695 37.0707 33.9016 37.0707 34.4117Z" fill="white"/>
<path d="M24.0824 33.3806H26.5613L25.3315 30.1896L24.0824 33.3806Z" fill="white"/>
<path d="M44.8298 35.1163C45.6758 35.1163 46.3616 34.3245 46.3616 33.3477C46.3616 32.3709 45.6758 31.579 44.8298 31.579C43.9838 31.579 43.298 32.3709 43.298 33.3477C43.298 34.3245 43.9838 35.1163 44.8298 35.1163Z" fill="white"/>
<path d="M18 23.9219V40.5585H51.2439V23.9219H18ZM27.6696 36.2342L27.045 34.6282H23.5986L22.9741 36.2342H21.5729L24.6661 28.6364H26.0673L29.1208 36.2342H27.6696ZM33.8264 36.2342L32.365 33.695L31.5384 34.6282V36.2342H30.228V28.1802H31.5384V32.8475L33.755 30.438H35.2664L33.2713 32.6738L35.3879 36.2342H33.8264V36.2342ZM39.4588 36.2342V35.5285C39.0863 36.0385 38.4811 36.2991 37.7157 36.2991C36.5564 36.2991 35.8318 35.5285 35.8318 34.4974C35.8318 33.4224 36.5676 32.7607 37.8769 32.7497H39.4486V32.598C39.4486 31.9253 39.0352 31.523 38.229 31.523C37.7249 31.523 37.1809 31.7076 36.6268 32.066L36.1533 31.0888C36.9289 30.6216 37.534 30.3721 38.5209 30.3721C39.9313 30.3721 40.7273 31.1426 40.7375 32.4342L40.7477 36.2331H39.4588V36.2342ZM47.671 36.2342H46.3606V35.301C45.9779 35.9418 45.3534 36.2991 44.5471 36.2991C43.0051 36.2991 41.9774 35.0833 41.9774 33.3147C41.9774 31.5559 43.0051 30.3732 44.5165 30.3732C45.3432 30.3732 45.9677 30.7315 46.3606 31.3823V28.1802H47.671V36.2342Z" fill="white"/>
</g>
<defs>
<clipPath id="clip0_825_130">
<rect width="116" height="38" fill="white" transform="translate(18 13)"/>
</clipPath>
</defs>
</svg>
