<svg width="1365" height="816" viewBox="0 0 1365 816" fill="none" xmlns="http://www.w3.org/2000/svg">
<path d="M0 769.381V0H1365V769.381C1113.83 669.897 837.704 729 771.457 769.381C704 810.5 438.5 847.5 293.034 769.381C178.891 708.084 54.3209 737.22 0 769.381Z" fill="#EAF4FC"/>
<circle cx="615" cy="639" r="24" fill="#FF6D34"/>
<path d="M614.293 648.707C614.683 649.098 615.317 649.098 615.707 648.707L622.071 642.343C622.462 641.953 622.462 641.319 622.071 640.929C621.681 640.538 621.047 640.538 620.657 640.929L615 646.586L609.343 640.929C608.953 640.538 608.319 640.538 607.929 640.929C607.538 641.319 607.538 641.953 607.929 642.343L614.293 648.707ZM614 630L614 648L616 648L616 630L614 630Z" fill="white"/>
<line x1="615.5" y1="667" x2="615.5" y2="809" stroke="#BCBCBC"/>
</svg>
